# xmcd CD database file
#
# Track frame offsets:
#	150
#	20175
#	37782
#	57885
#	77240
#	100252
#	121425
#	138875
#	157205
#	181510
#	203417
#	223317
#	239255
#	254840
#
# Disc length: 3676 seconds
#
# Revision: 0
# Processed by: cddbd v1.5PL3 Copyright (c) Steve Scherf et al.
# Submitted via: CDex 1.50beta10
#
DISCID=c40e5a0e
DTITLE=Various Artist - MyRevolution〜め組のひと
DYEAR=1900
DGENRE=Pop
TTITLE0=渡辺美里/MyRevolution
TTITLE1=渡辺美里/BELIEVE
TTITLE2=小比類巻かほる/HoldOnMe
TTITLE3=大沢誉志幸/その気××（mistake)
TTITLE4=バービーボーイズ/女ぎつねon the Run
TTITLE5=TM NETWORK/SELF CONTROL
TTITLE6=IPPU-DO/すみれSEPTEMBER LOVE
TTITLE7=佐野元春/YoungBlood
TTITLE8=佐野元春/SOMEDAY
TTITLE9=渡辺美里/Teenage Walk
TTITLE10=渡辺美里/ＧＲＯＷＩＮ’ＵＰ
TTITLE11=大江千里/十人十色
TTITLE12=ラッツ＆スター/め組のひと
TTITLE13=鈴木雅之/ガラス越しに消えた夏
EXTD=
EXTT0=
EXTT1=
EXTT2=
EXTT3=
EXTT4=
EXTT5=
EXTT6=
EXTT7=
EXTT8=
EXTT9=
EXTT10=
EXTT11=
EXTT12=
EXTT13=
PLAYORDER=
